<svg height="18" width="19" fill="none" viewBox="0 0 19 18" xmlns="http://www.w3.org/2000/svg">
	<path d="M13.707 0C14.1967 2.18125e-05 14.6663 0.194873 15.0127 0.541016C15.3589 0.887224 15.5535 1.35709 15.5537 1.84668V3.39551C15.9272 3.42643 16.2828 3.56946 16.5723 3.80664L16.707 3.92969L16.8301 4.06543C17.0991 4.39391 17.2479 4.80704 17.248 5.23535V7.91895C17.307 7.95693 17.3643 7.9982 17.4189 8.04297L17.5547 8.16504L17.6777 8.30078C17.9468 8.62933 18.0956 9.04327 18.0957 9.47168V11.166C18.0956 11.6556 17.9008 12.1254 17.5547 12.4717C17.4611 12.5653 17.3577 12.6472 17.248 12.7178V15.4014C17.248 15.8912 17.0533 16.3606 16.707 16.707C16.3607 17.0534 15.8912 17.248 15.4014 17.248H2.69434C1.97977 17.248 1.29434 16.9643 0.789062 16.459C0.284105 15.9538 0.000114645 15.2689 0 14.5547V2.69434C0.000101268 1.97991 0.283878 1.29425 0.789062 0.789062C1.29431 0.283933 1.97988 0 2.69434 0H13.707ZM2 14.5547C2.00011 14.7385 2.07324 14.9149 2.20312 15.0449C2.33333 15.1751 2.5102 15.248 2.69434 15.248H15.248V13.0127H13.707C12.9925 13.0127 12.307 12.7289 11.8018 12.2236C11.2966 11.7184 11.0127 11.0328 11.0127 10.3184C11.0128 9.60398 11.2966 8.91823 11.8018 8.41309C12.307 7.908 12.9926 7.62403 13.707 7.62402H15.248V5.38867H2.69434C2.45763 5.38867 2.22483 5.35495 2 5.29492V14.5547ZM13.707 9.62402C13.523 9.62403 13.346 9.69714 13.2158 9.82715C13.0857 9.95723 13.0128 10.1344 13.0127 10.3184C13.0127 10.5024 13.0858 10.6794 13.2158 10.8096C13.346 10.9398 13.5229 11.0127 13.707 11.0127H16.0957V9.62402H13.707ZM2.69434 2C2.51031 2 2.3333 2.07307 2.20312 2.20312C2.07301 2.33324 2.0001 2.51034 2 2.69434C2.00002 2.87838 2.07303 3.05537 2.20312 3.18555C2.33332 3.31571 2.51023 3.38867 2.69434 3.38867H13.5537V2H2.69434Z" fill="white"/>
</svg>